<?xml version="1.0" encoding="utf-8"?>
<svg viewBox="0 0 250 125" width="250px" height="125px" xmlns="http://www.w3.org/2000/svg">
  <defs/>
  <g transform="matrix(1.002548, 0, 0, 1.009417, -125.6365, -77.716824)" style="">
    <title>cr.ux logo</title>
    <rect x="147.76" y="90.464" width="204.479" height="87.908" style="stroke: rgb(0, 0, 0); fill: none;">
      <title>outer-container</title>
    </rect>
    <rect y="170.587" width="163.088" height="17.847" style="fill: rgb(241, 255, 110);" x="170.113">
      <title>cut-out-highlight</title>
    </rect>
    <path d="M 185.8 150.11 Q 182.52 153.15 176.45 153.15 Q 172.58 153.15 169.39 151.66 Q 166.2 150.18 164.17 147.68 Q 159.89 142.43 159.89 135.02 Q 159.89 130.24 161.85 126.18 Q 163.8 122.11 167.61 119.58 Q 171.42 117.05 177.02 117.05 Q 182.61 117.05 185.7 120.02 L 184.27 123.83 Q 180.67 121.43 176.14 121.43 Q 171.61 121.43 168.63 125.3 Q 165.64 129.18 165.64 135.16 Q 165.64 141.15 168.63 144.96 Q 171.61 148.77 176.25 148.77 Q 180.89 148.77 184.42 146.27 Z M 208.86 152.36 L 203.17 152.36 L 203.17 118.08 L 207.82 118.08 L 208.29 124.43 Q 210.39 120.8 213.79 118.93 Q 217.2 117.05 221.51 117.05 L 224.26 117.05 L 224.26 122.33 L 220.7 122.33 Q 215.23 122.33 212.04 125.07 Q 208.86 127.8 208.86 133.3 Z M 253.16 152.36 L 243.76 152.36 L 243.76 142.96 L 253.16 142.96 Z M 299.17 141.24 Q 299.17 153.15 285.92 153.15 Q 272.67 153.15 272.67 141.24 L 272.67 118.08 L 278.35 118.08 L 278.35 141.74 Q 278.35 145.4 280.17 147.08 Q 281.98 148.77 285.92 148.77 Q 289.85 148.77 291.67 147.08 Q 293.48 145.4 293.48 141.74 L 293.48 118.08 L 299.17 118.08 Z M 309.04 118.08 L 315.54 118.08 L 323.69 131.27 L 331.85 118.08 L 337.75 118.08 L 327.22 134.71 L 338.13 152.36 L 331.82 152.36 L 323.44 138.71 L 314.72 152.36 L 308.47 152.36 L 319.72 134.86 Z" style="fill: rgb(51, 51, 51); text-transform: lowercase;"/>
    <path d="M 184.79 182.41 L 183.9 182.41 L 183.9 177.74 L 182.5 177.74 L 182.5 177.05 L 183.9 177.05 Q 183.9 176.07 183.98 175.81 Q 184.13 175.3 184.38 175.08 Q 184.85 174.67 186.1 174.67 L 186.62 174.67 L 186.57 175.36 L 186.08 175.36 Q 185.7 175.36 185.49 175.39 Q 185.27 175.42 185.09 175.54 Q 184.79 175.73 184.79 176.41 L 184.79 177.05 L 186.62 177.05 L 186.62 177.74 L 184.79 177.74 Z M 193.11 175.64 L 193.11 175.16 Q 193.11 174.98 193.31 174.85 Q 193.51 174.72 193.7 174.72 Q 193.9 174.72 194.09 174.85 Q 194.29 174.98 194.29 175.16 L 194.29 175.64 Q 194.29 175.82 194.09 175.95 Q 193.9 176.09 193.7 176.09 Q 193.51 176.09 193.31 175.95 Q 193.11 175.82 193.11 175.64 Z M 191.73 177.74 L 191.73 177.05 L 194.15 177.05 L 194.15 181.73 L 195.68 181.73 L 195.68 182.41 L 191.56 182.41 L 191.56 181.73 L 193.26 181.73 L 193.26 177.74 Z M 202.97 176.89 Q 204.63 176.89 204.63 179 L 204.63 182.41 L 203.74 182.41 L 203.74 179.11 Q 203.74 178.54 203.68 178.3 Q 203.63 178.06 203.51 177.9 Q 203.26 177.58 202.69 177.58 Q 202.12 177.58 201.73 177.91 Q 201.33 178.24 201.33 178.79 L 201.33 182.41 L 200.44 182.41 L 200.44 177.05 L 201.26 177.05 L 201.31 177.64 Q 201.84 176.89 202.97 176.89 Z M 212.76 179.7 Q 212.76 178.45 212.39 178.01 Q 212.02 177.58 211.34 177.58 Q 210.39 177.58 210.11 178.51 Q 209.96 179.03 209.96 179.75 Q 209.96 181.85 211.34 181.85 Q 212.76 181.85 212.76 179.7 Z M 212.76 177.79 L 212.76 174.87 L 213.65 174.77 L 213.65 182.41 L 212.76 182.41 L 212.76 181.58 Q 212.22 182.53 211.23 182.53 Q 210.1 182.53 209.58 181.72 Q 209.07 180.91 209.07 179.69 Q 209.07 178.21 209.82 177.44 Q 210.35 176.89 211.24 176.89 Q 211.84 176.89 212.22 177.14 Q 212.6 177.39 212.76 177.79 Z M 229.82 177.74 L 229.82 180.25 Q 229.82 180.72 229.87 180.99 Q 229.93 181.27 230.08 181.44 Q 230.23 181.61 230.48 181.67 Q 230.72 181.73 231.14 181.73 L 232.12 181.73 L 232.07 182.41 L 231.18 182.41 Q 229.79 182.41 229.33 181.9 Q 229.04 181.57 228.97 180.83 Q 228.93 180.51 228.93 180.03 L 228.93 177.74 L 227.42 177.74 L 227.52 177.05 L 228.93 177.05 L 228.93 175.21 L 229.82 174.95 L 229.82 177.05 L 232.08 177.05 L 232.08 177.74 Z M 241.07 179.18 L 241.07 182.41 L 240.19 182.41 L 240.19 179.29 Q 240.19 178.29 239.92 177.93 Q 239.65 177.58 239.11 177.58 Q 238.56 177.58 238.16 177.96 Q 237.75 178.33 237.75 178.77 L 237.75 182.41 L 236.87 182.41 L 236.87 174.87 L 237.75 174.77 L 237.75 177.7 Q 238.38 176.89 239.43 176.89 Q 241.07 176.89 241.07 179.18 Z M 246.97 182.16 Q 246.97 182.16 246.69 181.97 Q 246.41 181.79 246.13 181.15 Q 245.86 180.52 245.86 179.73 Q 245.86 178.93 246.12 178.3 Q 246.37 177.66 246.87 177.28 Q 247.37 176.89 247.97 176.89 Q 249.1 176.89 249.63 177.66 Q 250.16 178.44 250.16 179.57 L 250.16 179.87 L 246.76 179.87 Q 246.79 180.7 247.17 181.27 Q 247.56 181.85 248.32 181.85 Q 248.84 181.8 249.76 181.29 L 250.05 181.9 Q 249.41 182.53 248.31 182.53 Q 247.53 182.53 246.97 182.16 Z M 249.31 179.22 Q 249.21 177.58 248.15 177.58 Q 246.96 177.58 246.79 179.22 Z" style="fill: rgb(51, 51, 51); text-transform: lowercase;"/>
    <path d="M 265.47 182.16 Q 265.47 182.16 265.19 181.97 Q 264.91 181.79 264.64 181.15 Q 264.37 180.52 264.37 179.73 Q 264.37 178.93 264.62 178.3 Q 264.87 177.66 265.37 177.28 Q 265.87 176.89 266.47 176.89 Q 267.61 176.89 268.13 177.66 Q 268.66 178.44 268.66 179.57 L 268.66 179.87 L 265.27 179.87 Q 265.3 180.7 265.68 181.27 Q 266.06 181.85 266.83 181.85 Q 267.34 181.8 268.26 181.29 L 268.55 181.9 Q 267.92 182.53 266.82 182.53 Q 266.04 182.53 265.47 182.16 Z M 267.81 179.22 Q 267.71 177.58 266.66 177.58 Q 265.47 177.58 265.3 179.22 Z M 276.12 179.37 Q 276.82 179.54 277.14 179.91 Q 277.45 180.28 277.45 180.98 Q 277.45 181.68 276.92 182.11 Q 276.39 182.53 275.58 182.53 Q 275 182.53 274.46 182.39 Q 273.92 182.24 273.66 182.05 L 273.88 181.41 Q 274.09 181.54 274.53 181.67 Q 274.97 181.8 275.49 181.8 Q 276.01 181.8 276.32 181.58 Q 276.63 181.36 276.63 181 Q 276.63 180.64 276.48 180.43 Q 276.33 180.22 275.89 180.12 L 274.98 179.9 Q 274.19 179.7 273.93 179.33 Q 273.68 178.95 273.68 178.4 Q 273.68 177.84 274.13 177.37 Q 274.58 176.9 275.44 176.89 L 275.51 176.89 Q 276.48 176.89 277.16 177.26 L 276.97 177.88 Q 276.25 177.58 275.52 177.58 Q 275.07 177.59 274.78 177.81 Q 274.49 178.03 274.49 178.37 Q 274.49 178.7 274.63 178.87 Q 274.78 179.04 275.19 179.14 L 276.12 179.37 Z M 285.12 179.37 Q 285.82 179.54 286.14 179.91 Q 286.46 180.28 286.46 180.98 Q 286.46 181.68 285.92 182.11 Q 285.39 182.53 284.58 182.53 Q 284 182.53 283.46 182.39 Q 282.92 182.24 282.66 182.05 L 282.88 181.41 Q 283.09 181.54 283.53 181.67 Q 283.98 181.8 284.5 181.8 Q 285.02 181.8 285.33 181.58 Q 285.64 181.36 285.64 181 Q 285.64 180.64 285.48 180.43 Q 285.33 180.22 284.89 180.12 L 283.98 179.9 Q 283.19 179.7 282.94 179.33 Q 282.68 178.95 282.68 178.4 Q 282.68 177.84 283.13 177.37 Q 283.58 176.9 284.44 176.89 L 284.51 176.89 Q 285.48 176.89 286.16 177.26 L 285.97 177.88 Q 285.25 177.58 284.52 177.58 Q 284.07 177.59 283.78 177.81 Q 283.49 178.03 283.49 178.37 Q 283.49 178.7 283.63 178.87 Q 283.78 179.04 284.19 179.14 L 285.12 179.37 Z M 292.46 182.16 Q 292.46 182.16 292.18 181.97 Q 291.9 181.79 291.63 181.15 Q 291.36 180.52 291.36 179.73 Q 291.36 178.93 291.61 178.3 Q 291.86 177.66 292.36 177.28 Q 292.86 176.89 293.46 176.89 Q 294.59 176.89 295.12 177.66 Q 295.65 178.44 295.65 179.57 L 295.65 179.87 L 292.26 179.87 Q 292.28 180.7 292.67 181.27 Q 293.05 181.85 293.82 181.85 Q 294.33 181.8 295.25 181.29 L 295.54 181.9 Q 294.91 182.53 293.81 182.53 Q 293.02 182.53 292.46 182.16 Z M 294.8 179.22 Q 294.7 177.58 293.65 177.58 Q 292.46 177.58 292.28 179.22 Z M 302.95 176.89 Q 304.61 176.89 304.61 179 L 304.61 182.41 L 303.72 182.41 L 303.72 179.11 Q 303.72 178.54 303.66 178.3 Q 303.6 178.06 303.49 177.9 Q 303.24 177.58 302.67 177.58 Q 302.1 177.58 301.71 177.91 Q 301.31 178.24 301.31 178.79 L 301.31 182.41 L 300.42 182.41 L 300.42 177.05 L 301.24 177.05 L 301.29 177.64 Q 301.82 176.89 302.95 176.89 Z M 313.36 182.06 Q 312.84 182.53 311.9 182.53 Q 311.29 182.53 310.79 182.3 Q 310.3 182.07 309.98 181.68 Q 309.31 180.86 309.31 179.7 Q 309.31 178.95 309.61 178.32 Q 309.92 177.68 310.52 177.29 Q 311.11 176.89 311.99 176.89 Q 312.86 176.89 313.34 177.36 L 313.12 177.95 Q 312.56 177.58 311.85 177.58 Q 311.14 177.58 310.67 178.18 Q 310.21 178.79 310.21 179.72 Q 310.21 180.66 310.67 181.25 Q 311.14 181.85 311.87 181.85 Q 312.59 181.85 313.14 181.46 Z M 319.46 182.16 Q 319.46 182.16 319.17 181.97 Q 318.89 181.79 318.62 181.15 Q 318.35 180.52 318.35 179.73 Q 318.35 178.93 318.6 178.3 Q 318.85 177.66 319.35 177.28 Q 319.86 176.89 320.46 176.89 Q 321.59 176.89 322.12 177.66 Q 322.64 178.44 322.64 179.57 L 322.64 179.87 L 319.25 179.87 Q 319.28 180.7 319.66 181.27 Q 320.05 181.85 320.81 181.85 Q 321.33 181.8 322.24 181.29 L 322.54 181.9 Q 321.9 182.53 320.8 182.53 Q 320.02 182.53 319.46 182.16 Z M 321.79 179.22 Q 321.7 177.58 320.64 177.58 Q 319.45 177.58 319.28 179.22 Z" style="fill: rgb(215, 3, 3); text-transform: lowercase;"/>
  </g>
</svg>
